<?xml version="1.0" standalone="no"?>
<!DOCTYPE svg PUBLIC "-//W3C//DTD SVG 20010904//EN"
 "http://www.w3.org/TR/2001/REC-SVG-20010904/DTD/svg10.dtd">
<svg version="1.0" xmlns="http://www.w3.org/2000/svg"
 width="892.000000pt" height="892.000000pt" viewBox="0 0 892.000000 892.000000"
 preserveAspectRatio="xMidYMid meet">
<metadata>
Created by potrace 1.11, written by Peter Selinger 2001-2013
</metadata>
<g transform="translate(0.000000,892.000000) scale(0.100000,-0.100000)"
fill="#000000" stroke="none">
<path d="M4218 8425 c-2 -2 -43 -6 -93 -10 -49 -3 -103 -8 -120 -10 -30 -4
-158 -22 -225 -31 -83 -12 -285 -57 -405 -89 -71 -20 -134 -37 -140 -38 -50
-14 -233 -77 -280 -98 -11 -4 -49 -20 -85 -35 -358 -145 -715 -361 -1024 -618
-114 -95 -324 -297 -411 -397 -85 -97 -100 -115 -189 -233 -287 -379 -497
-816 -610 -1271 -38 -152 -40 -158 -60 -290 -33 -206 -41 -314 -41 -545 0
-238 9 -364 40 -550 2 -14 7 -45 10 -70 3 -25 10 -58 15 -75 5 -16 11 -46 14
-65 5 -30 14 -67 56 -215 103 -375 326 -816 581 -1151 115 -151 188 -234 339
-384 161 -160 208 -202 363 -324 l37 -30 0 -703 0 -704 58 32 c31 18 66 38 77
44 11 7 45 26 75 42 47 25 155 85 375 208 28 15 79 44 115 63 36 19 94 52 130
72 36 21 92 52 125 70 33 19 132 74 220 123 l160 89 70 -16 c39 -9 81 -18 95
-21 14 -3 43 -11 65 -17 22 -5 49 -12 60 -13 11 -2 74 -13 140 -24 66 -12 144
-24 174 -27 30 -3 63 -7 74 -10 129 -24 782 -24 914 0 10 2 45 7 78 11 311 35
677 130 1004 260 221 87 341 148 658 331 18 11 33 22 33 27 0 4 4 7 10 7 27 0
302 206 465 350 131 115 360 358 479 510 164 210 368 555 462 783 14 34 31 76
39 92 49 109 164 502 180 615 3 25 8 52 10 60 2 8 6 33 10 55 3 22 10 67 15
100 31 208 34 713 5 866 -2 10 -6 39 -10 66 -3 26 -10 71 -15 98 -5 28 -12 65
-15 82 -3 18 -14 70 -26 115 -11 46 -22 94 -25 108 -3 14 -14 54 -25 90 -11
36 -22 72 -24 80 -5 26 -75 209 -117 310 -138 327 -345 655 -597 950 -62 72
-279 292 -351 355 -155 137 -554 425 -588 425 -6 0 -12 3 -14 8 -9 20 -387
209 -543 271 -186 74 -397 141 -600 191 -132 32 -387 74 -525 86 -36 3 -76 8
-90 11 -27 5 -577 13 -582 8z"/>
</g>
</svg>
